<svg xmlns="http://www.w3.org/2000/svg" width="257" height="64" viewBox="0 0 257 64" fill="none"><path d="M145.216 30.0569H135.397V25.1796H150.465V46.6672C150.012 46.9145 149.359 47.1618 148.48 47.4091C147.614 47.6701 146.614 47.9037 145.495 48.1235C144.376 48.3433 143.177 48.5219 141.898 48.6593C140.619 48.7967 139.354 48.8516 138.115 48.8516C134.424 48.8516 131.16 48.3296 128.336 47.2854C125.512 46.2413 123.14 44.7712 121.235 42.8615C119.33 40.9518 117.878 38.6437 116.892 35.9234C115.906 33.2031 115.413 30.1668 115.413 26.8283C115.413 23.2012 115.959 19.9039 117.038 16.9363C118.118 13.9687 119.69 11.4408 121.741 9.32498C123.793 7.22294 126.271 5.60175 129.189 4.46143C132.093 3.32111 135.304 2.75781 138.807 2.75781C139.753 2.75781 140.699 2.79903 141.645 2.86772C142.591 2.95016 143.497 3.06007 144.35 3.19746C145.202 3.34858 146.002 3.51345 146.734 3.71953C147.467 3.91188 148.08 4.1317 148.573 4.35152V9.13264C147.281 8.69299 145.802 8.32204 144.123 8.01979C142.444 7.71754 140.779 7.56641 139.101 7.56641C136.649 7.56641 134.318 7.9511 132.093 8.70673C129.868 9.47611 127.91 10.6302 126.218 12.1827C124.526 13.7351 123.167 15.6723 122.154 18.0079C121.142 20.3435 120.636 23.0776 120.636 26.2238C120.636 29.37 121.062 31.9529 121.888 34.1923C122.727 36.4317 123.913 38.2727 125.445 39.7428C126.977 41.1991 128.842 42.2845 131.027 42.9851C133.212 43.6858 135.65 44.0293 138.314 44.0293C139.553 44.0293 140.779 43.9606 141.992 43.8232C143.204 43.6858 144.27 43.5072 145.202 43.2599V30.0432L145.216 30.0569Z" fill="#5A245B"></path><path d="M170.848 20.6631H170.462C169.276 20.6631 168.117 20.773 166.984 20.9928C165.852 21.2127 164.773 21.5561 163.774 22.0095C162.774 22.4629 161.869 23.0262 161.069 23.6857C160.27 24.3451 159.59 25.142 159.057 26.0487V48.0309H154.062V16.4865H157.925L158.898 21.5012H158.991C159.484 20.6769 160.097 19.9212 160.816 19.2068C161.535 18.4924 162.348 17.8741 163.241 17.3521C164.147 16.8162 165.133 16.4041 166.198 16.1018C167.277 15.7996 168.397 15.6484 169.582 15.6484C169.795 15.6484 170.022 15.6484 170.248 15.6622C170.475 15.6622 170.675 15.6897 170.848 15.7171V20.6631Z" fill="#5A245B"></path><path d="M198.972 32.2843C198.972 34.771 198.625 37.0242 197.946 39.0575C197.253 41.0909 196.294 42.8357 195.028 44.292C193.776 45.7484 192.257 46.8612 190.472 47.6581C188.687 48.4549 186.688 48.8533 184.477 48.8533C182.265 48.8533 180.16 48.4549 178.375 47.6581C176.577 46.8612 175.058 45.7346 173.806 44.292C172.553 42.8357 171.594 41.1046 170.928 39.0575C170.262 37.0105 169.929 34.7573 169.929 32.2843C169.929 29.8113 170.275 27.5169 170.955 25.4698C171.647 23.4365 172.62 21.6779 173.872 20.2216C175.124 18.7653 176.657 17.6249 178.442 16.8281C180.24 16.0312 182.239 15.6328 184.45 15.6328C186.662 15.6328 188.74 16.0312 190.539 16.8281C192.337 17.6249 193.869 18.7515 195.108 20.2216C196.361 21.6779 197.306 23.4365 197.973 25.4698C198.639 27.5032 198.972 29.7701 198.972 32.2843ZM193.749 32.2843C193.749 30.3334 193.523 28.6023 193.057 27.091C192.59 25.5797 191.951 24.2883 191.125 23.2441C190.299 22.2 189.313 21.3894 188.181 20.8536C187.048 20.3178 185.796 20.043 184.45 20.043C183.105 20.043 181.852 20.3178 180.72 20.8536C179.588 21.3894 178.602 22.2 177.776 23.2441C176.95 24.302 176.31 25.5797 175.844 27.091C175.378 28.6023 175.151 30.3471 175.151 32.2843C175.151 34.2215 175.378 35.9388 175.844 37.4501C176.31 38.9614 176.95 40.2391 177.789 41.2832C178.628 42.3274 179.614 43.1105 180.747 43.6601C181.879 44.1959 183.131 44.4707 184.477 44.4707C185.822 44.4707 187.075 44.1959 188.194 43.6601C189.326 43.1242 190.299 42.3274 191.125 41.2832C191.951 40.2391 192.59 38.9614 193.057 37.4501C193.523 35.9388 193.749 34.2077 193.749 32.2843Z" fill="#5A245B"></path><path d="M213.787 48.8571C212.202 48.8571 210.776 48.6785 209.497 48.3213C208.232 47.9641 207.113 47.4695 206.167 46.8238C205.208 46.1781 204.395 45.4087 203.729 44.5157C203.063 43.6226 202.53 42.6334 202.143 41.5755C201.837 40.7787 201.624 39.8994 201.504 38.9514C201.371 38.0034 201.317 36.9593 201.317 35.8327V16.4747H206.313V35.8052C206.313 37.5501 206.54 39.0201 206.993 40.1879C207.512 41.5206 208.338 42.5647 209.484 43.3204C210.63 44.0898 212.095 44.4607 213.881 44.4607C215.772 44.4607 217.291 44.0348 218.437 43.1967C219.583 42.3587 220.409 41.2321 220.901 39.8032C221.261 38.7179 221.448 37.3852 221.448 35.7915V16.4609H226.444V35.8602C226.444 36.9181 226.377 37.921 226.27 38.8278C226.151 39.7483 225.964 40.6001 225.711 41.3695C225.325 42.4548 224.792 43.4578 224.112 44.3783C223.433 45.2988 222.607 46.0819 221.621 46.7551C220.635 47.4146 219.489 47.9366 218.197 48.2938C216.891 48.6648 215.439 48.8434 213.801 48.8434L213.787 48.8571Z" fill="#5A245B"></path><path d="M256.965 31.8878C256.965 34.086 256.752 36.0231 256.339 37.713C255.912 39.4029 255.366 40.8867 254.673 42.1507C253.981 43.4146 253.168 44.4725 252.249 45.3243C251.316 46.1762 250.357 46.8631 249.371 47.3852C248.385 47.9072 247.373 48.2782 246.347 48.5118C245.321 48.7453 244.362 48.8552 243.456 48.8552C241.577 48.8552 239.952 48.5392 238.566 47.9072C237.181 47.2753 235.942 46.341 234.849 45.1045H234.756V63.4734H229.854V16.4865H233.624L234.69 20.0723H234.783C235.063 19.6327 235.422 19.1931 235.862 18.7809C236.302 18.355 236.888 17.9153 237.634 17.4345C238.38 16.9536 239.259 16.5415 240.312 16.1843C241.351 15.827 242.483 15.6484 243.709 15.6484C245.428 15.6484 247.08 15.9507 248.678 16.5415C250.277 17.1322 251.689 18.094 252.915 19.3991C254.14 20.7043 255.126 22.3805 255.859 24.4276C256.605 26.4746 256.965 28.9614 256.965 31.8878ZM251.742 31.9564C251.742 30.1154 251.556 28.4668 251.17 27.0105C250.797 25.5541 250.224 24.3039 249.464 23.2735C248.705 22.2431 247.786 21.4462 246.68 20.8967C245.574 20.3471 244.308 20.0723 242.856 20.0723C241.817 20.0723 240.871 20.2097 240.019 20.4982C239.166 20.7868 238.393 21.1577 237.7 21.5974C237.008 22.037 236.422 22.5179 235.915 23.0262C235.422 23.5345 235.023 23.9879 234.716 24.3863V40.8867C235.769 41.9995 236.981 42.8651 238.327 43.5108C239.672 44.1565 241.124 44.4725 242.683 44.4725C243.629 44.4725 244.642 44.2939 245.694 43.923C246.746 43.552 247.732 42.9063 248.625 41.9583C249.518 41.0241 250.264 39.7326 250.85 38.1252C251.436 36.5177 251.729 34.4432 251.729 31.9427L251.742 31.9564Z" fill="#5A245B"></path><path d="M92.8311 48.0997V0H100.465V48.086H92.8311V48.0997Z" fill="#5A245B"></path><path d="M51.7313 20.6219H51.5981L50.892 16.143H44.5771V48.3332H52.2109V26.7769C53.1835 25.2931 54.5424 24.194 56.3143 23.4659C58.0862 22.7514 60.1379 22.3805 62.4826 22.3805H63.1221V15.8133C55.4883 15.4698 51.718 20.6219 51.718 20.6219H51.7313Z" fill="#5A245B"></path><path d="M90.4865 42.1116C90.4732 40.93 90.4599 39.6386 90.4599 38.196V25.6799C90.4599 24.0038 90.1668 22.465 89.5806 21.0499C88.9944 19.6348 88.1018 18.3983 86.9161 17.3542C85.7304 16.31 84.2516 15.4994 82.493 14.9087C80.7344 14.3179 78.6694 14.0156 76.3247 14.0156C74.3263 14.0431 72.4212 14.2492 70.596 14.6339C68.7841 15.0186 67.0522 15.5819 65.4402 16.31V22.6574C67.3053 21.9292 69.0373 21.3796 70.6226 21.0087C72.2213 20.6377 73.82 20.4591 75.4187 20.4591C76.7243 20.4591 77.8301 20.624 78.7494 20.9537C79.6553 21.2835 80.4014 21.7369 80.9609 22.2864C81.5205 22.8497 81.9334 23.4817 82.1866 24.2098C82.4397 24.9243 82.5729 25.6799 82.5729 26.4493V27.7819C81.6803 27.5346 80.6545 27.3148 79.4821 27.1362C78.3097 26.9576 77.0174 26.8614 75.6186 26.8614C73.7135 26.8614 71.9682 27.1225 70.3962 27.6308C68.8241 28.1529 67.4652 28.8948 66.3461 29.8703C65.2137 30.8594 64.3344 32.0547 63.6949 33.4698C63.0688 34.8849 62.749 36.4924 62.749 38.2784C62.749 39.8996 63.0155 41.3697 63.5617 42.6886C64.1079 44.0075 64.854 45.1204 65.8132 46.0546C66.7724 46.9888 67.9048 47.6895 69.2371 48.1841C70.5693 48.6787 71.9949 48.926 73.5269 48.926C74.6594 48.926 75.7118 48.7886 76.6844 48.5139C77.6569 48.2391 78.5495 47.8819 79.3489 47.4285C80.1482 46.9888 80.8543 46.508 81.4805 45.9997C82.1066 45.4913 82.6262 45.0105 83.0792 44.5296H83.2124L83.5455 48.0605H90.4865V42.0978V42.1116ZM82.5729 38.9791C82.2399 39.3638 81.8402 39.7622 81.3606 40.1744C80.881 40.5866 80.3481 40.9575 79.7486 41.2872C79.149 41.617 78.4962 41.8917 77.7901 42.1116C77.0841 42.3314 76.3247 42.4413 75.5253 42.4413C74.8858 42.4413 74.273 42.3451 73.7001 42.1665C73.1273 41.9879 72.621 41.7131 72.1814 41.3422C71.755 40.9712 71.4087 40.5179 71.1555 39.9546C70.9024 39.3913 70.7692 38.7455 70.7692 37.9899C70.7692 36.3687 71.3287 35.1597 72.4478 34.3629C73.5669 33.5797 75.099 33.1813 77.0174 33.1813C78.0166 33.1813 79.0025 33.25 79.975 33.4011C80.9476 33.5523 81.8135 33.7171 82.5729 33.8957V38.9791Z" fill="#5A245B"></path><path d="M42.5521 48.3147L37.0766 41.514C38.582 39.6318 39.7411 37.4336 40.5537 34.9194C41.4597 32.1166 41.9126 29.0254 41.9126 25.6319C41.9126 22.2384 41.4463 19.1334 40.5138 16.317C39.5812 13.4868 38.2223 11.0687 36.4238 9.02164C34.6385 6.98829 32.427 5.39459 29.8158 4.268C27.2312 3.15516 24.3003 2.59186 21.0096 2.57812C21.0096 2.57812 20.9696 2.57812 20.9563 2.57812C20.943 2.57812 20.9163 2.57812 20.903 2.57812C17.6124 2.59186 14.6814 3.15516 12.0968 4.268C9.48563 5.39459 7.28742 6.97456 5.48888 9.02164C3.69034 11.055 2.33144 13.4868 1.39886 16.317C0.466288 19.1334 0 22.2384 0 25.6319C0 29.0254 0.452965 32.1166 1.3589 34.9194C2.26483 37.7221 3.59708 40.1264 5.35565 42.146C7.11422 44.1656 9.28579 45.7181 11.857 46.8309C14.2951 47.8751 17.4925 48.4247 20.6765 48.4796C20.7698 48.4796 20.8631 48.4796 20.9563 48.4796V41.7064C19.1045 41.7064 17.4125 41.3629 15.8538 40.6897C14.2817 40.0165 12.9362 39.0135 11.7904 37.6671C10.658 36.3207 9.7654 34.6446 9.12592 32.6112C8.48644 30.5916 8.1667 28.2285 8.1667 25.522C8.1667 22.8154 8.48644 20.4524 9.12592 18.4328C9.7654 16.4131 10.658 14.7233 11.7904 13.3631C12.9362 12.0167 14.2817 11 15.8538 10.3406C17.3992 9.68111 19.1045 9.35138 20.9563 9.35138C22.8081 9.35138 24.5134 9.69485 26.0588 10.3406C27.6309 11 28.9765 12.0167 30.1222 13.3631C31.2679 14.7095 32.1472 16.3994 32.8 18.4328C33.4395 20.4661 33.7726 22.8292 33.7726 25.522C33.7726 28.2148 33.4528 30.5916 32.8 32.6112C32.5336 33.4631 32.2005 34.2462 31.8408 34.9743L28.4835 30.8115H21.0363L28.0572 39.5356C28.0572 39.5356 28.0439 39.5356 28.0306 39.5494L32.7467 45.3746L35.0915 48.2873H42.5388L42.5521 48.3147Z" fill="#5A245B"></path></svg>