<svg width="142" height="36" viewBox="0 0 142 36" fill="none" xmlns="http://www.w3.org/2000/svg">
<g clip-path="url(#clip0_516_1006)">
<path d="M6.11523 1.40096L9.14457 1.63608V28.7812H6.11523V1.40096ZM6.13272 0.0525797H21.4848V3.37314H6.13272V0.0525797ZM18.4555 0.757959L21.4236 0.844332V29.0163H18.4555V0.757959ZM6.13272 25.5422H15.4305V28.8628H6.13272V25.5422ZM12.2482 11.9097L15.3693 11.8953L21.4848 28.9491H18.5167L12.2482 11.9097ZM12.3269 25.6238H15.4305L20.0379 39.0548L16.8119 39.0884L12.3269 25.6238ZM29.7816 -0.0529873L32.9028 -0.0673828L32.8241 28.7812H29.7816V-0.0529873ZM29.9521 25.5422H45.09V28.8628H29.9521V25.5422ZM42.1219 0.119759H45.09V28.5269L42.1394 28.5413L42.1219 0.119759ZM53.448 1.40096L56.4774 1.63608V28.9491H53.448V1.40096ZM53.4655 0.0525797H68.8176V3.37314H53.4655V0.0525797ZM65.7883 0.757959L68.7564 0.844332V29.0163H65.7883V0.757959ZM55.2009 12.0104H66.7281V15.4366H55.2009V12.0104ZM77.0532 0.302102H91.0109L90.9934 3.60827L77.0532 3.62746V0.302102ZM77.1319 25.6094H90.9453V29.0979H77.1319V25.6094ZM87.1379 3.45951H90.9453L80.8038 25.7773L77.1625 25.691L87.1379 3.45951ZM96.1428 1.56891L99.3689 1.80403V28.9491H96.1428V1.56891ZM96.1428 0.0525797H117.812V3.37314H96.1428V0.0525797ZM114.599 0.676385L117.812 0.757959V28.93H114.599V0.676385ZM105.349 0.810743H108.527V28.8628H105.349V0.810743ZM124.452 1.40096L127.477 1.63608V28.9491H124.452V1.40096ZM124.465 0.0525797H139.817V3.37314H124.465V0.0525797ZM136.792 0.757959L139.756 0.844332V29.0163H136.792V0.757959ZM126.2 12.0104H137.727V15.4366H126.2V12.0104Z" fill="#1B1A18" stroke="#1B1A18"/>
</g>
<defs>
<clipPath id="clip0_516_1006">
<rect width="142" height="36" fill="white"/>
</clipPath>
</defs>
</svg>
